<?xml version="1.0" encoding="utf-8"?>
<!-- Generator: Adobe Illustrator 19.2.1, SVG Export Plug-In . SVG Version: 6.00 Build 0)  -->
<svg version="1.1" id="Layer_1" xmlns="http://www.w3.org/2000/svg" xmlns:xlink="http://www.w3.org/1999/xlink" x="0px" y="0px"
	 viewBox="0 0 107 32" style="enable-background:new 0 0 107 32;" xml:space="preserve">
<style type="text/css">
	.st0{fill:#FEFEFE;}
	.st1{filter:url(#Adobe_OpacityMaskFilter);}
	.st2{fill:#FFFFFF;}
	.st3{mask:url(#mask-2);fill:#FEFEFE;}
	.st4{enable-background:new    ;}
</style>
<title>apple-icon</title>
<desc>Created with Sketch.</desc>
<g id="Symbols">
	<g id="call" transform="translate(-1345.000000, -127.000000)">
		<g id="apple-icon" transform="translate(1345.000000, 125.000000)">
			<g>
				<g id="Page-1" transform="translate(0.000000, 2.000000)">
					<g>
						<path id="Fill-1" class="st0" d="M26.3,22.7c-0.7,1.6-1.1,2.3-2,3.7c-1.3,2-3.1,4.4-5.4,4.4c-2,0-2.5-1.3-5.2-1.3
							c-2.7,0-3.3,1.3-5.3,1.3c-2.3,0-4-2.2-5.3-4.2c-3.6-5.5-4-12-1.8-15.4C3,8.9,5.5,7.4,7.8,7.4c2.4,0,3.9,1.3,5.9,1.3
							c1.9,0,3.1-1.3,5.9-1.3c2.1,0,4.3,1.1,5.9,3.1C20.2,13.4,21.1,20.7,26.3,22.7"/>
						<g id="Group-5" transform="translate(12.497333, 0.155175)">
							<g id="Clip-4">
							</g>
							<defs>
								<filter id="Adobe_OpacityMaskFilter" filterUnits="userSpaceOnUse" x="0.1" y="0.1" width="6.3" height="7.4">
									<feColorMatrix  type="matrix" values="1 0 0 0 0  0 1 0 0 0  0 0 1 0 0  0 0 0 1 0"/>
								</filter>
							</defs>
							<mask maskUnits="userSpaceOnUse" x="0.1" y="0.1" width="6.3" height="7.4" id="mask-2">
								<g class="st1">
									<polygon id="path-1" class="st2" points="0.1,0.1 6.5,0.1 6.5,7.5 0.1,7.5 									"/>
								</g>
							</mask>
							<path id="Fill-3" class="st3" d="M4.9,5.1c1-1.3,1.8-3.1,1.5-5C4.8,0.2,2.9,1.3,1.7,2.6c-1,1.2-1.9,3.1-1.5,4.8
								C2,7.5,3.9,6.5,4.9,5.1"/>
						</g>
					</g>
				</g>
				<g id="appstore-text" transform="translate(38.000000, 0.000000)">
					<g id="Group-6" transform="translate(1.000000, 17.000000)">
						<path id="Fill-1_1_" class="st0" d="M5.1,2.4C5.2,3,5.4,3.5,5.6,4.1l1.1,3.2H3.5l1.1-3.3C4.8,3.6,4.9,3,5.1,2.4L5.1,2.4z
							 M4.1,0.4L0,12.6h1.9l1.2-3.7h4l1.3,3.7h1.9L6.2,0.4H4.1z"/>
						<path id="Fill-4" class="st0" d="M15.1,5.1c1.6,0,2.4,1.5,2.4,3c0,1.9-0.9,3.2-2.4,3.2c-1,0-1.9-0.7-2.2-1.7
							c0-0.2-0.1-0.4-0.1-0.6V7.5c0-0.1,0-0.3,0.1-0.5c0-0.1,0-0.1,0-0.1C13.2,5.8,14.1,5.1,15.1,5.1 M15.6,3.6
							c-1.2,0-2.2,0.5-2.9,1.4l-0.1-1.2h-1.7l0,0.2C11,4.7,11,5.5,11,6.7v9.4h1.8v-4.4c0.6,0.7,1.5,1.1,2.5,1.1
							c1.1,0,2.1-0.4,2.8-1.2c0.8-0.9,1.2-2.1,1.2-3.6c0-1.3-0.4-2.4-1.1-3.2C17.6,4,16.6,3.6,15.6,3.6"/>
						<path id="Fill-6" class="st0" d="M24.6,5.1c1.6,0,2.4,1.5,2.4,3c0,1.9-0.9,3.2-2.4,3.2c-1,0-1.9-0.7-2.2-1.7
							c0-0.2-0.1-0.4-0.1-0.6V7.5c0-0.1,0-0.3,0.1-0.5c0,0,0-0.1,0-0.1C22.6,5.8,23.5,5.1,24.6,5.1 M25,3.6c-1.2,0-2.2,0.5-2.9,1.4
							L22,3.8h-1.7l0,0.2c0,0.8,0.1,1.6,0.1,2.8v9.4h1.8v-4.4c0.6,0.7,1.5,1.1,2.5,1.1c1.1,0,2.1-0.4,2.8-1.2
							c0.8-0.9,1.2-2.1,1.2-3.6c0-1.3-0.4-2.4-1.1-3.2C27,4,26.1,3.6,25,3.6"/>
						<path id="Fill-8" class="st0" d="M36.8,5.6c-1.7-0.7-2.3-1.2-2.3-2.2c0-0.8,0.6-1.6,2.1-1.6c1.2,0,1.9,0.4,2.1,0.5l0.2,0.1
							l0.5-1.5l-0.1-0.1c-0.3-0.2-1.2-0.6-2.7-0.6c-2.3,0-4,1.4-4,3.4c0,1.6,1,2.7,3.2,3.5c1.6,0.6,2.1,1.2,2.1,2.2
							c0,1.2-0.9,1.9-2.3,1.9c-0.9,0-1.9-0.3-2.6-0.8l-0.2-0.1l-0.5,1.6l0.1,0.1c0.7,0.5,2,0.8,3.1,0.8c3.1,0,4.3-1.9,4.3-3.6
							C39.9,7.5,39,6.4,36.8,5.6"/>
						<path id="Fill-11" class="st0" d="M43.2,1.7l-1.8,0.6v1.5h-1.3v1.5h1.3v4.5c0,1.1,0.2,1.9,0.6,2.3c0.4,0.5,1,0.7,1.8,0.7
							c0.7,0,1.2-0.1,1.4-0.2l0.1,0l-0.1-1.5l-0.2,0.1c-0.2,0.1-0.5,0.1-0.9,0.1c-0.7,0-1-0.5-1-1.5V5.2h2.2V3.8h-2.2V1.7z"/>
						<path id="Fill-13" class="st0" d="M49.9,5c1.6,0,2.4,1.6,2.4,3.1c0,1.9-1,3.2-2.4,3.2h0c-1.4,0-2.4-1.3-2.4-3.1
							C47.4,6.6,48.2,5,49.9,5 M49.9,3.6c-2.6,0-4.3,1.9-4.3,4.7c0,2.7,1.7,4.5,4.2,4.5h0c2.1,0,4.3-1.5,4.3-4.7
							c0-1.3-0.4-2.4-1.2-3.3C52.2,4,51.2,3.6,49.9,3.6"/>
						<path id="Fill-15" class="st0" d="M59.8,3.7l-0.1,0c-0.2,0-0.3-0.1-0.5-0.1c-1,0-1.8,0.6-2.3,1.5l-0.1-1.3h-1.6l0,0.2
							c0,0.7,0.1,1.6,0.1,2.7l0,6h1.8V7.9c0-0.3,0-0.5,0.1-0.7c0.2-1.1,1-1.9,1.9-1.9c0.2,0,0.3,0,0.5,0l0.2,0V3.7z"/>
						<path id="Fill-17" class="st0" d="M63.7,5c0.6,0,1,0.2,1.3,0.5c0.5,0.5,0.6,1.3,0.6,1.7h-4.2C61.7,6.1,62.4,5,63.7,5
							 M63.9,3.6c-2.4,0-4.1,2-4.1,4.8c0,2.7,1.7,4.5,4.3,4.5c1.4,0,2.3-0.3,2.9-0.6l0.1-0.1l-0.4-1.4l-0.2,0.1
							c-0.5,0.2-1.2,0.4-2.3,0.4c-0.8,0-2.6-0.3-2.7-2.7l5.9,0l0-0.1c0-0.2,0.1-0.4,0.1-0.8C67.5,5.8,66.5,3.6,63.9,3.6"/>
					</g>
					<g class="st4">
						<path class="st2" d="M7.1,6.4c0,0.5-0.1,1-0.3,1.5C6.7,8.3,6.4,8.7,6.1,9C5.8,9.3,5.4,9.6,5,9.7C4.6,9.9,4.1,10,3.5,10H0.9
							V2.8h2.7c0.5,0,1,0.1,1.4,0.3c0.4,0.2,0.8,0.4,1.1,0.7C6.4,4.1,6.7,4.5,6.8,5C7,5.4,7.1,5.9,7.1,6.4z M6.1,6.4
							C6.1,6,6,5.6,5.9,5.2C5.8,4.9,5.6,4.6,5.4,4.4C5.2,4.1,4.9,3.9,4.6,3.8c-0.3-0.1-0.7-0.2-1-0.2H1.8v5.6h1.7
							c0.4,0,0.7-0.1,1-0.2c0.3-0.1,0.6-0.3,0.8-0.5s0.4-0.5,0.5-0.9C6,7.3,6.1,6.9,6.1,6.4z"/>
						<path class="st2" d="M9.4,3.3c0,0.1,0,0.2-0.1,0.2c0,0.1-0.1,0.1-0.1,0.2C9.2,3.8,9.1,3.9,9.1,3.9S8.9,4,8.8,4
							c-0.1,0-0.2,0-0.2,0c-0.1,0-0.1-0.1-0.2-0.1C8.3,3.7,8.3,3.7,8.2,3.6c0-0.1-0.1-0.2-0.1-0.2c0-0.1,0-0.2,0.1-0.2
							C8.3,3,8.3,3,8.4,2.9c0.1-0.1,0.1-0.1,0.2-0.1c0.1,0,0.2,0,0.2,0c0.1,0,0.2,0,0.2,0s0.1,0.1,0.2,0.1C9.3,3,9.4,3,9.4,3.1
							C9.4,3.2,9.4,3.3,9.4,3.3z M9.2,4.9V10H8.4V4.9H9.2z"/>
						<path class="st2" d="M13.7,5.8c0,0.1-0.1,0.1-0.2,0.1c0,0-0.1,0-0.2-0.1c-0.1,0-0.1-0.1-0.2-0.1s-0.2-0.1-0.3-0.1
							c-0.1,0-0.3-0.1-0.4-0.1c-0.1,0-0.3,0-0.4,0.1c-0.1,0-0.2,0.1-0.3,0.2c-0.1,0.1-0.2,0.1-0.2,0.2c0,0.1-0.1,0.2-0.1,0.3
							c0,0.1,0,0.2,0.1,0.3c0.1,0.1,0.2,0.2,0.3,0.2c0.1,0.1,0.3,0.1,0.4,0.2c0.2,0,0.3,0.1,0.5,0.2c0.2,0.1,0.3,0.1,0.5,0.2
							c0.2,0.1,0.3,0.2,0.4,0.2c0.1,0.1,0.2,0.2,0.3,0.4C14,8.1,14,8.2,14,8.5c0,0.2,0,0.4-0.1,0.6c-0.1,0.2-0.2,0.4-0.4,0.5
							c-0.2,0.1-0.4,0.3-0.6,0.3c-0.2,0.1-0.5,0.1-0.8,0.1c-0.4,0-0.7-0.1-1-0.2c-0.3-0.1-0.5-0.3-0.7-0.4l0.2-0.3
							c0,0,0.1-0.1,0.1-0.1c0,0,0.1,0,0.1,0C10.9,9,11,9,11,9.1c0.1,0,0.1,0.1,0.2,0.2c0.1,0.1,0.2,0.1,0.3,0.2
							c0.1,0,0.3,0.1,0.5,0.1c0.2,0,0.3,0,0.5-0.1c0.1,0,0.2-0.1,0.3-0.2C13,9.1,13.1,9,13.1,8.9c0-0.1,0.1-0.2,0.1-0.3
							c0-0.1,0-0.3-0.1-0.3C13,8.2,12.9,8.1,12.8,8c-0.1-0.1-0.3-0.1-0.4-0.2S12,7.8,11.9,7.7c-0.2-0.1-0.3-0.1-0.5-0.2
							s-0.3-0.2-0.4-0.3S10.7,7,10.6,6.9c-0.1-0.2-0.1-0.3-0.1-0.6c0-0.2,0-0.4,0.1-0.6s0.2-0.3,0.4-0.5c0.2-0.1,0.3-0.2,0.6-0.3
							s0.5-0.1,0.8-0.1c0.3,0,0.6,0.1,0.9,0.2c0.3,0.1,0.5,0.2,0.7,0.4L13.7,5.8z"/>
						<path class="st2" d="M15.2,11.7V4.9h0.5c0.1,0,0.2,0.1,0.2,0.2L16,5.7c0.2-0.3,0.5-0.5,0.7-0.6s0.6-0.2,1-0.2
							c0.3,0,0.6,0.1,0.8,0.2c0.2,0.1,0.4,0.3,0.6,0.5c0.2,0.2,0.3,0.5,0.4,0.8s0.1,0.7,0.1,1.1c0,0.4-0.1,0.7-0.2,1
							S19.2,9.1,19,9.3c-0.2,0.2-0.4,0.4-0.7,0.6c-0.3,0.1-0.6,0.2-0.9,0.2c-0.3,0-0.6-0.1-0.8-0.2c-0.2-0.1-0.4-0.2-0.6-0.4v2.2
							H15.2z M17.4,5.6c-0.3,0-0.5,0.1-0.8,0.2c-0.2,0.1-0.4,0.3-0.6,0.6v2.5c0.2,0.2,0.3,0.4,0.5,0.5c0.2,0.1,0.4,0.1,0.7,0.1
							c0.5,0,0.8-0.2,1.1-0.5c0.3-0.3,0.4-0.8,0.4-1.4c0-0.3,0-0.6-0.1-0.8S18.5,6.2,18.4,6c-0.1-0.2-0.2-0.3-0.4-0.3
							C17.8,5.6,17.6,5.6,17.4,5.6z"/>
						<path class="st2" d="M22.7,4.9c0.4,0,0.7,0.1,1,0.2c0.3,0.1,0.6,0.3,0.8,0.5c0.2,0.2,0.4,0.5,0.5,0.8c0.1,0.3,0.2,0.7,0.2,1.1
							c0,0.4-0.1,0.8-0.2,1.1c-0.1,0.3-0.3,0.6-0.5,0.8S24,9.8,23.7,9.9c-0.3,0.1-0.6,0.2-1,0.2s-0.7-0.1-1-0.2
							c-0.3-0.1-0.6-0.3-0.8-0.5s-0.4-0.5-0.5-0.8s-0.2-0.7-0.2-1.1c0-0.4,0.1-0.8,0.2-1.1c0.1-0.3,0.3-0.6,0.5-0.8
							c0.2-0.2,0.5-0.4,0.8-0.5C22,4.9,22.4,4.9,22.7,4.9z M22.7,9.4c0.5,0,0.9-0.2,1.1-0.5s0.4-0.8,0.4-1.4c0-0.6-0.1-1.1-0.4-1.4
							c-0.2-0.3-0.6-0.5-1.1-0.5c-0.3,0-0.5,0-0.7,0.1c-0.2,0.1-0.3,0.2-0.5,0.4c-0.1,0.2-0.2,0.4-0.3,0.6c-0.1,0.2-0.1,0.5-0.1,0.8
							s0,0.6,0.1,0.8c0.1,0.2,0.2,0.4,0.3,0.6c0.1,0.2,0.3,0.3,0.5,0.4C22.3,9.3,22.5,9.4,22.7,9.4z"/>
						<path class="st2" d="M26.2,10V4.9h0.5C26.9,4.9,27,5,27,5.1l0.1,0.5c0.2-0.2,0.5-0.4,0.7-0.6c0.3-0.2,0.6-0.2,0.9-0.2
							c0.3,0,0.5,0,0.7,0.1c0.2,0.1,0.4,0.2,0.5,0.4c0.1,0.2,0.2,0.4,0.3,0.6c0.1,0.2,0.1,0.5,0.1,0.8V10h-0.9V6.8
							c0-0.4-0.1-0.7-0.3-0.9c-0.2-0.2-0.4-0.3-0.8-0.3c-0.3,0-0.5,0.1-0.7,0.2s-0.4,0.3-0.6,0.5V10H26.2z"/>
						<path class="st2" d="M33.8,2.8L32.7,4c0,0-0.1,0.1-0.1,0.1s-0.1,0-0.2,0h-0.5L32.6,3c0-0.1,0.1-0.1,0.2-0.2
							c0.1,0,0.1-0.1,0.2-0.1H33.8z M32.8,4.9V10h-0.9V4.9H32.8z"/>
						<path class="st2" d="M33.7,4.9h0.7c0.1,0,0.1,0,0.2,0.1c0,0,0.1,0.1,0.1,0.1L36,8.4c0,0.1,0.1,0.2,0.1,0.4
							c0,0.1,0.1,0.2,0.1,0.4c0-0.1,0.1-0.2,0.1-0.4c0-0.1,0.1-0.2,0.1-0.4l1.3-3.3c0-0.1,0.1-0.1,0.1-0.1s0.1-0.1,0.2-0.1h0.7
							L36.6,10h-0.8L33.7,4.9z"/>
						<path class="st2" d="M41.4,4.9c0.3,0,0.6,0.1,0.8,0.2c0.3,0.1,0.5,0.2,0.7,0.4c0.2,0.2,0.3,0.4,0.4,0.7c0.1,0.3,0.2,0.6,0.2,1
							c0,0.1,0,0.2,0,0.3c0,0-0.1,0.1-0.2,0.1h-3.4c0,0.3,0.1,0.6,0.1,0.8c0.1,0.2,0.2,0.4,0.3,0.6c0.1,0.2,0.3,0.3,0.5,0.4
							c0.2,0.1,0.4,0.1,0.6,0.1c0.2,0,0.4,0,0.6-0.1c0.2-0.1,0.3-0.1,0.4-0.2S42.7,9,42.8,9c0.1-0.1,0.1-0.1,0.2-0.1
							c0.1,0,0.1,0,0.2,0.1l0.2,0.3c-0.1,0.1-0.2,0.2-0.4,0.3c-0.2,0.1-0.3,0.2-0.5,0.2C42.3,9.9,42.1,10,42,10c-0.2,0-0.4,0-0.6,0
							c-0.3,0-0.7-0.1-1-0.2s-0.6-0.3-0.8-0.5c-0.2-0.2-0.4-0.5-0.5-0.8C39,8.2,39,7.8,39,7.4c0-0.4,0.1-0.7,0.2-1
							c0.1-0.3,0.3-0.6,0.5-0.8c0.2-0.2,0.5-0.4,0.7-0.5C40.7,4.9,41,4.9,41.4,4.9z M41.4,5.5c-0.4,0-0.8,0.1-1,0.4
							c-0.2,0.2-0.4,0.6-0.5,1h2.8c0-0.2,0-0.4-0.1-0.6c-0.1-0.2-0.1-0.3-0.2-0.4c-0.1-0.1-0.2-0.2-0.4-0.3S41.6,5.5,41.4,5.5z"/>
						<path class="st2" d="M45.6,2.6V10h-0.9V2.6H45.6z"/>
						<path class="st2" d="M49.1,10V4.9h0.5c0.1,0,0.2,0.1,0.2,0.2l0.1,0.5c0.2-0.2,0.5-0.4,0.7-0.6c0.3-0.2,0.6-0.2,0.9-0.2
							c0.3,0,0.5,0,0.7,0.1c0.2,0.1,0.4,0.2,0.5,0.4C53,5.6,53.1,5.8,53.2,6c0.1,0.2,0.1,0.5,0.1,0.8V10h-0.9V6.8
							c0-0.4-0.1-0.7-0.3-0.9c-0.2-0.2-0.4-0.3-0.8-0.3c-0.3,0-0.5,0.1-0.7,0.2S50.2,6.1,50,6.3V10H49.1z"/>
						<path class="st2" d="M58.4,10H58c-0.1,0-0.2,0-0.2,0s-0.1-0.1-0.1-0.2l-0.1-0.5c-0.1,0.1-0.3,0.2-0.4,0.3
							c-0.1,0.1-0.3,0.2-0.4,0.2c-0.1,0.1-0.3,0.1-0.4,0.1s-0.3,0-0.5,0c-0.2,0-0.4,0-0.6-0.1c-0.2-0.1-0.3-0.1-0.4-0.2
							c-0.1-0.1-0.2-0.2-0.3-0.4c-0.1-0.2-0.1-0.4-0.1-0.6c0-0.2,0.1-0.4,0.2-0.6c0.1-0.2,0.3-0.4,0.5-0.5c0.2-0.1,0.6-0.3,1-0.4
							s0.9-0.1,1.5-0.1V6.8c0-0.4-0.1-0.7-0.3-0.9s-0.4-0.3-0.7-0.3c-0.2,0-0.4,0-0.5,0.1s-0.3,0.1-0.4,0.2C55.4,5.9,55.4,6,55.3,6
							c-0.1,0.1-0.2,0.1-0.2,0.1c-0.1,0-0.1,0-0.2,0c0,0-0.1-0.1-0.1-0.1l-0.2-0.3c0.3-0.3,0.6-0.5,0.9-0.6c0.3-0.1,0.7-0.2,1.1-0.2
							c0.3,0,0.5,0,0.8,0.1c0.2,0.1,0.4,0.2,0.6,0.4c0.2,0.2,0.3,0.4,0.3,0.6c0.1,0.2,0.1,0.5,0.1,0.8V10z M56,9.5
							c0.2,0,0.3,0,0.4,0c0.1,0,0.3-0.1,0.4-0.1s0.2-0.1,0.3-0.2c0.1-0.1,0.2-0.2,0.3-0.3v-1c-0.4,0-0.8,0-1,0.1
							c-0.3,0.1-0.5,0.1-0.7,0.2c-0.2,0.1-0.3,0.2-0.4,0.3c-0.1,0.1-0.1,0.2-0.1,0.4c0,0.1,0,0.2,0.1,0.3c0,0.1,0.1,0.2,0.2,0.2
							c0.1,0.1,0.2,0.1,0.3,0.1S55.9,9.5,56,9.5z"/>
					</g>
				</g>
			</g>
		</g>
	</g>
</g>
</svg>
