<?xml version="1.0" encoding="utf-8"?>
<!-- Generator: Adobe Illustrator 19.2.1, SVG Export Plug-In . SVG Version: 6.00 Build 0)  -->
<svg version="1.1" id="Layer_1" xmlns="http://www.w3.org/2000/svg" xmlns:xlink="http://www.w3.org/1999/xlink" x="0px" y="0px"
	 viewBox="0 0 20 20" style="enable-background:new 0 0 20 20;" xml:space="preserve">
<style type="text/css">
	.st0{fill:#0074BA;}
</style>
<title>Fill 1</title>
<desc>Created with Sketch.</desc>
<g id="Symbols">
	<g id="footer" transform="translate(-1481.000000, -39.000000)">
		<g id="social">
			<g transform="translate(1385.000000, 39.000000)">
				<path id="Fill-1" class="st0" d="M97.1,0C96.5,0,96,0.5,96,1.1v17.8c0,0.6,0.5,1.1,1.1,1.1h9.6v-7.7h-2.6v-3h2.6V7
					c0-2.6,1.6-4,3.9-4c1.1,0,2.1,0.1,2.3,0.1v2.7l-1.6,0c-1.3,0-1.5,0.6-1.5,1.5v1.9h3l-0.4,3h-2.6V20h5.1c0.6,0,1.1-0.5,1.1-1.1
					V1.1c0-0.6-0.5-1.1-1.1-1.1H97.1z"/>
			</g>
		</g>
	</g>
</g>
</svg>
