<?xml version="1.0" encoding="utf-8"?>
<!-- Generator: Adobe Illustrator 19.2.1, SVG Export Plug-In . SVG Version: 6.00 Build 0)  -->
<svg version="1.1" id="Layer_1" xmlns="http://www.w3.org/2000/svg" xmlns:xlink="http://www.w3.org/1999/xlink" x="0px" y="0px"
	 viewBox="0 0 123 33" style="enable-background:new 0 0 123 33;" xml:space="preserve">
<style type="text/css">
	.st0{fill:#FFFFFF;}
	.st1{enable-background:new    ;}
</style>
<title>google-icon</title>
<desc>Created with Sketch.</desc>
<g id="Symbols">
	<g id="call" transform="translate(-1142.000000, -126.000000)">
		<g id="google-icon" transform="translate(1142.000000, 126.000000)">
			<g>
				<g id="googlplay-icon">
					<path id="Fill-1" class="st0" d="M0,16.4c0-4.5,0-9,0-13.6c0-0.6,0.1-1.1,0.5-1.5c0.2-0.2,0.3-0.2,0.5,0c3,3.1,6.1,6.2,9.1,9.3
						c2,2,4,4,5.9,6c0.2,0.2,0.2,0.3,0,0.5C11.2,22,6.3,26.8,1.5,31.7c-0.3,0.3-0.5,0.3-0.8,0C0.2,31.3,0,30.8,0,30.2
						c0-2.7,0-5.4,0-8C0,20.2,0,18.3,0,16.4L0,16.4z"/>
					<path id="Fill-4" class="st0" d="M1.7,0.9c0.4,0,0.6,0.1,0.9,0.2C8.8,4.6,15,8.1,21.2,11.5c0.3,0.2,0.3,0.2,0.1,0.5
						c-1.4,1.4-2.8,2.7-4.1,4.1c-0.1,0.1-0.2,0.2-0.4,0c-4.9-5-9.9-10-14.8-15.1C1.9,1,1.8,1,1.7,0.9"/>
					<path id="Fill-7" class="st0" d="M3.1,31.6c4.5-4.5,9-9.1,13.5-13.6c0.3-0.3,0.4-0.2,0.7,0c1.1,1.2,2.3,2.4,3.5,3.5
						c0.2,0.2,0.2,0.3-0.1,0.4c-5.8,3.2-11.5,6.3-17.3,9.5C3.3,31.4,3.2,31.5,3.1,31.6"/>
					<path id="Fill-9" class="st0" d="M28.8,16.6c0,0.5-0.3,0.9-0.6,1.1c-0.3,0.2-0.6,0.4-0.9,0.5c-1.7,1-3.5,1.9-5.2,2.9
						c-0.2,0.1-0.4,0.1-0.6-0.1c-1.2-1.3-2.5-2.6-3.7-3.8c-0.2-0.2-0.2-0.3,0-0.5c1.5-1.4,2.9-2.9,4.4-4.4c0.2-0.2,0.3-0.2,0.5-0.1
						c1.7,1,3.5,1.9,5.2,2.9C28.4,15.5,28.8,15.9,28.8,16.6"/>
				</g>
				<g id="googleplay-text" transform="translate(40.000000, 0.000000)">
					<path id="Page-1" class="st0" d="M64.3,29h1.8V17h-1.8V29z M80.6,21.3l-2.1,5.2h-0.1l-2.1-5.2h-1.9l3.2,7.3l-1.8,4.1h1.9
						l5-11.3H80.6z M68.9,26.6c0-0.9,1-1.3,1.9-1.3c0.8,0,1.2,0.2,1.6,0.4c-0.1,1.1-1.1,1.9-2.1,1.9C69.7,27.7,68.9,27.4,68.9,26.6z
						 M67.3,22.9l1.6,0.7c0.3-0.7,1-0.9,1.7-0.9c0.9,0,1.9,0.6,1.9,1.5v0.1c-0.3-0.2-1-0.5-1.9-0.5c-1.7,0-3.5,0.9-3.5,2.7
						c0,1.6,1.4,2.6,3,2.6c1.2,0,1.9-0.5,2.3-1.2h0.1V29h1.7v-4.6c0-2.1-1.6-3.3-3.7-3.3C69.2,21.1,67.9,21.6,67.3,22.9z M56.8,22.8
						v-4.1h2.6c1.4,0,2.1,1.1,2.1,2.1c0,0.9-0.8,2.1-2.1,2.1H56.8z M55,17v12h1.8v-4.6h2.5c2,0,4-1.4,4-3.7s-2-3.7-4-3.7H55z
						 M33.4,25.2c0-1.4,1-2.5,2.3-2.5c1.2,0,2.2,1.1,2.2,2.5c0,1.4-1,2.5-2.2,2.5C34.5,27.7,33.4,26.6,33.4,25.2z M37.8,22L37.8,22
						c-0.5-0.5-1.2-0.9-2.2-0.9c-2.1,0-3.9,1.8-3.9,4.1c0,2.3,1.9,4.1,3.9,4.1c1,0,1.8-0.4,2.2-0.9h0.1v0.6c0,1.6-0.8,2.4-2.2,2.4
						c-1.1,0-1.8-0.8-2.1-1.5L32,30.5c0.5,1.1,1.7,2.4,3.6,2.4c2.1,0,3.9-1.2,3.9-4.3v-7.4h-1.7V22z M40.8,29h1.8V17h-1.8V29z
						 M45.2,25.1c0-1.6,1.2-2.4,2.2-2.4c0.7,0,1.3,0.4,1.5,0.9L45.2,25.1z M50.9,23.7c-0.3-0.9-1.4-2.6-3.5-2.6
						c-2.1,0-3.9,1.7-3.9,4.1c0,2.3,1.7,4.1,4.1,4.1c1.9,0,3-1.1,3.4-1.8l-1.4-0.9c-0.5,0.7-1.1,1.1-2,1.1c-0.9,0-1.6-0.4-2-1.2
						l5.5-2.3L50.9,23.7z M7,22.3v1.7h4.2c-0.1,1-0.5,1.7-1,2.2c-0.6,0.6-1.6,1.3-3.2,1.3c-2.6,0-4.6-2.1-4.6-4.6
						c0-2.6,2-4.6,4.6-4.6c1.4,0,2.4,0.5,3.1,1.2l1.2-1.2c-1-1-2.4-1.8-4.4-1.8c-3.5,0-6.5,2.9-6.5,6.4c0,3.5,3,6.4,6.5,6.4
						c1.9,0,3.3-0.6,4.5-1.8c1.2-1.1,1.5-2.8,1.5-4.1c0-0.4,0-0.8-0.1-1.1H7z M15.4,25.2c0-1.5,1.1-2.5,2.3-2.5s2.3,1,2.3,2.5
						c0,1.5-1.1,2.5-2.3,2.5S15.4,26.6,15.4,25.2z M13.6,25.2c0,2.4,1.9,4.1,4.1,4.1s4.1-1.7,4.1-4.1c0-2.4-1.9-4.1-4.1-4.1
						S13.6,22.8,13.6,25.2z M24.4,25.2c0-1.5,1.1-2.5,2.3-2.5s2.3,1,2.3,2.5c0,1.5-1.1,2.5-2.3,2.5S24.4,26.6,24.4,25.2z M22.6,25.2
						c0,2.4,1.9,4.1,4.1,4.1s4.1-1.7,4.1-4.1c0-2.4-1.9-4.1-4.1-4.1S22.6,22.8,22.6,25.2z"/>
					<g class="st1">
						<path class="st0" d="M7.1,6.4c0,0.5-0.1,1-0.3,1.5C6.7,8.3,6.4,8.7,6.1,9C5.8,9.3,5.4,9.6,5,9.7C4.6,9.9,4.1,10,3.5,10H0.9
							V2.8h2.7c0.5,0,1,0.1,1.4,0.3c0.4,0.2,0.8,0.4,1.1,0.7C6.4,4.1,6.7,4.5,6.8,5C7,5.4,7.1,5.9,7.1,6.4z M6.1,6.4
							C6.1,6,6,5.6,5.9,5.2C5.8,4.9,5.6,4.6,5.4,4.4C5.2,4.1,4.9,3.9,4.6,3.8c-0.3-0.1-0.7-0.2-1-0.2H1.8v5.6h1.7
							c0.4,0,0.7-0.1,1-0.2c0.3-0.1,0.6-0.3,0.8-0.5s0.4-0.5,0.5-0.9C6,7.3,6.1,6.9,6.1,6.4z"/>
						<path class="st0" d="M9.4,3.3c0,0.1,0,0.2-0.1,0.2c0,0.1-0.1,0.1-0.1,0.2C9.2,3.8,9.1,3.9,9.1,3.9S8.9,4,8.8,4
							c-0.1,0-0.2,0-0.2,0c-0.1,0-0.1-0.1-0.2-0.1C8.3,3.7,8.3,3.7,8.2,3.6c0-0.1-0.1-0.2-0.1-0.2c0-0.1,0-0.2,0.1-0.2
							C8.3,3,8.3,3,8.4,2.9c0.1-0.1,0.1-0.1,0.2-0.1c0.1,0,0.2,0,0.2,0c0.1,0,0.2,0,0.2,0s0.1,0.1,0.2,0.1C9.3,3,9.4,3,9.4,3.1
							C9.4,3.2,9.4,3.3,9.4,3.3z M9.2,4.9V10H8.4V4.9H9.2z"/>
						<path class="st0" d="M13.7,5.8c0,0.1-0.1,0.1-0.2,0.1c0,0-0.1,0-0.2-0.1c-0.1,0-0.1-0.1-0.2-0.1s-0.2-0.1-0.3-0.1
							c-0.1,0-0.3-0.1-0.4-0.1c-0.1,0-0.3,0-0.4,0.1c-0.1,0-0.2,0.1-0.3,0.2c-0.1,0.1-0.2,0.1-0.2,0.2c0,0.1-0.1,0.2-0.1,0.3
							c0,0.1,0,0.2,0.1,0.3c0.1,0.1,0.2,0.2,0.3,0.2c0.1,0.1,0.3,0.1,0.4,0.2c0.2,0,0.3,0.1,0.5,0.2c0.2,0.1,0.3,0.1,0.5,0.2
							c0.2,0.1,0.3,0.2,0.4,0.2c0.1,0.1,0.2,0.2,0.3,0.4C14,8.1,14,8.2,14,8.5c0,0.2,0,0.4-0.1,0.6c-0.1,0.2-0.2,0.4-0.4,0.5
							c-0.2,0.1-0.4,0.3-0.6,0.3c-0.2,0.1-0.5,0.1-0.8,0.1c-0.4,0-0.7-0.1-1-0.2c-0.3-0.1-0.5-0.3-0.7-0.4l0.2-0.3
							c0,0,0.1-0.1,0.1-0.1c0,0,0.1,0,0.1,0C10.9,9,11,9,11,9.1c0.1,0,0.1,0.1,0.2,0.2c0.1,0.1,0.2,0.1,0.3,0.2
							c0.1,0,0.3,0.1,0.5,0.1c0.2,0,0.3,0,0.5-0.1c0.1,0,0.2-0.1,0.3-0.2C13,9.1,13.1,9,13.1,8.9c0-0.1,0.1-0.2,0.1-0.3
							c0-0.1,0-0.3-0.1-0.3C13,8.2,12.9,8.1,12.8,8c-0.1-0.1-0.3-0.1-0.4-0.2S12,7.8,11.9,7.7c-0.2-0.1-0.3-0.1-0.5-0.2
							s-0.3-0.2-0.4-0.3S10.7,7,10.6,6.9c-0.1-0.2-0.1-0.3-0.1-0.6c0-0.2,0-0.4,0.1-0.6s0.2-0.3,0.4-0.5c0.2-0.1,0.3-0.2,0.6-0.3
							s0.5-0.1,0.8-0.1c0.3,0,0.6,0.1,0.9,0.2c0.3,0.1,0.5,0.2,0.7,0.4L13.7,5.8z"/>
						<path class="st0" d="M15.2,11.7V4.9h0.5c0.1,0,0.2,0.1,0.2,0.2L16,5.7c0.2-0.3,0.5-0.5,0.7-0.6s0.6-0.2,1-0.2
							c0.3,0,0.6,0.1,0.8,0.2c0.2,0.1,0.4,0.3,0.6,0.5c0.2,0.2,0.3,0.5,0.4,0.8s0.1,0.7,0.1,1.1c0,0.4,0,0.7-0.1,1S19.2,9.1,19,9.3
							c-0.2,0.2-0.4,0.4-0.7,0.6c-0.3,0.1-0.6,0.2-0.9,0.2c-0.3,0-0.6-0.1-0.8-0.2S16.2,9.7,16,9.5v2.2H15.2z M17.4,5.6
							c-0.3,0-0.5,0.1-0.8,0.2c-0.2,0.1-0.4,0.3-0.6,0.6v2.5c0.2,0.2,0.3,0.4,0.5,0.5c0.2,0.1,0.4,0.1,0.7,0.1
							c0.5,0,0.8-0.2,1.1-0.5s0.4-0.8,0.4-1.4c0-0.3,0-0.6-0.1-0.8c-0.1-0.2-0.1-0.4-0.3-0.6c-0.1-0.2-0.2-0.3-0.4-0.3
							C17.8,5.6,17.6,5.6,17.4,5.6z"/>
						<path class="st0" d="M22.7,4.9c0.4,0,0.7,0.1,1,0.2c0.3,0.1,0.6,0.3,0.8,0.5c0.2,0.2,0.4,0.5,0.5,0.8c0.1,0.3,0.2,0.7,0.2,1.1
							c0,0.4-0.1,0.8-0.2,1.1c-0.1,0.3-0.3,0.6-0.5,0.8S24,9.8,23.7,9.9c-0.3,0.1-0.6,0.2-1,0.2s-0.7-0.1-1-0.2
							c-0.3-0.1-0.6-0.3-0.8-0.5s-0.4-0.5-0.5-0.8s-0.2-0.7-0.2-1.1c0-0.4,0.1-0.8,0.2-1.1c0.1-0.3,0.3-0.6,0.5-0.8
							c0.2-0.2,0.5-0.4,0.8-0.5S22.4,4.9,22.7,4.9z M22.7,9.4c0.5,0,0.9-0.2,1.1-0.5s0.4-0.8,0.4-1.4c0-0.6-0.1-1.1-0.4-1.4
							c-0.2-0.3-0.6-0.5-1.1-0.5c-0.3,0-0.5,0-0.7,0.1c-0.2,0.1-0.3,0.2-0.5,0.4c-0.1,0.2-0.2,0.4-0.3,0.6c-0.1,0.2-0.1,0.5-0.1,0.8
							s0,0.6,0.1,0.8c0.1,0.2,0.2,0.4,0.3,0.6c0.1,0.2,0.3,0.3,0.5,0.4C22.3,9.3,22.5,9.4,22.7,9.4z"/>
						<path class="st0" d="M26.2,10V4.9h0.5C26.9,4.9,27,5,27,5.1l0.1,0.5c0.2-0.2,0.5-0.4,0.7-0.6c0.3-0.2,0.6-0.2,0.9-0.2
							c0.3,0,0.5,0,0.7,0.1c0.2,0.1,0.4,0.2,0.5,0.4c0.1,0.2,0.2,0.4,0.3,0.6c0.1,0.2,0.1,0.5,0.1,0.8V10h-0.9V6.8
							c0-0.4-0.1-0.7-0.3-0.9c-0.2-0.2-0.4-0.3-0.8-0.3c-0.3,0-0.5,0.1-0.7,0.2s-0.4,0.3-0.6,0.5V10H26.2z"/>
						<path class="st0" d="M33.8,2.8L32.7,4c0,0-0.1,0.1-0.1,0.1s-0.1,0-0.2,0h-0.5L32.6,3c0-0.1,0.1-0.1,0.2-0.2
							c0.1,0,0.1-0.1,0.2-0.1H33.8z M32.8,4.9V10h-0.9V4.9H32.8z"/>
						<path class="st0" d="M33.7,4.9h0.7c0.1,0,0.1,0,0.2,0.1c0,0,0.1,0.1,0.1,0.1L36,8.4c0,0.1,0.1,0.2,0.1,0.4
							c0,0.1,0.1,0.2,0.1,0.4c0-0.1,0.1-0.2,0.1-0.4c0-0.1,0.1-0.2,0.1-0.4l1.3-3.3c0-0.1,0.1-0.1,0.1-0.1s0.1-0.1,0.2-0.1h0.7
							L36.6,10h-0.8L33.7,4.9z"/>
						<path class="st0" d="M41.4,4.9c0.3,0,0.6,0.1,0.8,0.2c0.3,0.1,0.5,0.2,0.7,0.4c0.2,0.2,0.3,0.4,0.4,0.7c0.1,0.3,0.2,0.6,0.2,1
							c0,0.1,0,0.2,0,0.3c0,0-0.1,0.1-0.2,0.1h-3.4c0,0.3,0.1,0.6,0.1,0.8c0.1,0.2,0.2,0.4,0.3,0.6c0.1,0.2,0.3,0.3,0.5,0.4
							c0.2,0.1,0.4,0.1,0.6,0.1c0.2,0,0.4,0,0.6-0.1c0.2-0.1,0.3-0.1,0.4-0.2S42.7,9,42.8,9c0.1-0.1,0.1-0.1,0.2-0.1
							c0.1,0,0.1,0,0.2,0.1l0.2,0.3c-0.1,0.1-0.2,0.2-0.4,0.3c-0.2,0.1-0.3,0.2-0.5,0.2C42.3,9.9,42.1,10,42,10c-0.2,0-0.4,0-0.6,0
							c-0.3,0-0.7-0.1-1-0.2s-0.6-0.3-0.8-0.5c-0.2-0.2-0.4-0.5-0.5-0.8C39,8.2,39,7.8,39,7.4c0-0.4,0.1-0.7,0.2-1
							c0.1-0.3,0.3-0.6,0.5-0.8c0.2-0.2,0.5-0.4,0.7-0.5C40.7,4.9,41,4.9,41.4,4.9z M41.4,5.5c-0.4,0-0.8,0.1-1,0.4
							c-0.2,0.2-0.4,0.6-0.5,1h2.8c0-0.2,0-0.4-0.1-0.6c-0.1-0.2-0.1-0.3-0.2-0.4c-0.1-0.1-0.2-0.2-0.4-0.3S41.6,5.5,41.4,5.5z"/>
						<path class="st0" d="M45.6,2.6V10h-0.9V2.6H45.6z"/>
						<path class="st0" d="M49.1,10V4.9h0.5c0.1,0,0.2,0.1,0.2,0.2l0.1,0.5c0.2-0.2,0.5-0.4,0.7-0.6c0.3-0.2,0.6-0.2,0.9-0.2
							c0.3,0,0.5,0,0.7,0.1c0.2,0.1,0.4,0.2,0.5,0.4C53,5.6,53.1,5.8,53.2,6c0.1,0.2,0.1,0.5,0.1,0.8V10h-0.9V6.8
							c0-0.4-0.1-0.7-0.3-0.9c-0.2-0.2-0.4-0.3-0.8-0.3c-0.3,0-0.5,0.1-0.7,0.2S50.2,6.1,50,6.3V10H49.1z"/>
						<path class="st0" d="M58.4,10H58c-0.1,0-0.2,0-0.2,0s-0.1-0.1-0.1-0.2l-0.1-0.5c-0.1,0.1-0.3,0.2-0.4,0.3
							c-0.1,0.1-0.3,0.2-0.4,0.2c-0.1,0.1-0.3,0.1-0.4,0.1s-0.3,0-0.5,0c-0.2,0-0.4,0-0.6-0.1c-0.2-0.1-0.3-0.1-0.4-0.2
							c-0.1-0.1-0.2-0.2-0.3-0.4c-0.1-0.2-0.1-0.4-0.1-0.6c0-0.2,0.1-0.4,0.2-0.6c0.1-0.2,0.3-0.4,0.5-0.5c0.2-0.1,0.6-0.3,1-0.4
							s0.9-0.1,1.5-0.1V6.8c0-0.4-0.1-0.7-0.3-0.9s-0.4-0.3-0.7-0.3c-0.2,0-0.4,0-0.5,0.1s-0.3,0.1-0.4,0.2C55.4,5.9,55.4,6,55.3,6
							c-0.1,0.1-0.2,0.1-0.2,0.1c-0.1,0-0.1,0-0.2,0c0,0-0.1-0.1-0.1-0.1l-0.2-0.3c0.3-0.3,0.6-0.5,0.9-0.6c0.3-0.1,0.7-0.2,1.1-0.2
							c0.3,0,0.5,0,0.8,0.1c0.2,0.1,0.4,0.2,0.6,0.4c0.2,0.2,0.3,0.4,0.3,0.6c0.1,0.2,0.1,0.5,0.1,0.8V10z M56,9.5
							c0.2,0,0.3,0,0.4,0c0.1,0,0.3-0.1,0.4-0.1s0.2-0.1,0.3-0.2c0.1-0.1,0.2-0.2,0.3-0.3v-1c-0.4,0-0.8,0-1,0.1
							c-0.3,0.1-0.5,0.1-0.7,0.2c-0.2,0.1-0.3,0.2-0.4,0.3c-0.1,0.1-0.1,0.2-0.1,0.4c0,0.1,0,0.2,0.1,0.3c0,0.1,0.1,0.2,0.2,0.2
							c0.1,0.1,0.2,0.1,0.3,0.1S55.9,9.5,56,9.5z"/>
					</g>
				</g>
			</g>
		</g>
	</g>
</g>
</svg>
