<?xml version="1.0" encoding="UTF-8"?>
<svg width="30px" height="49px" viewBox="0 0 30 49" version="1.1" xmlns="http://www.w3.org/2000/svg" xmlns:xlink="http://www.w3.org/1999/xlink">
    <!-- Generator: Sketch 45.2 (43514) - http://www.bohemiancoding.com/sketch -->
    <title>Shape</title>
    <desc>Created with Sketch.</desc>
    <defs></defs>
    <g id="assets" stroke="none" stroke-width="1" fill="none" fill-rule="evenodd">
        <g id="load-more" transform="translate(-29.000000, 0.000000)" fill-rule="nonzero" fill="#E0EBF0">
            <g id="Shape">
                <path d="M42.45041,0.566575499 L29.8163791,11.6216375 C28.7742689,12.5457221 28.7675886,14.0287206 29.5816546,14.9655656 C30.3957126,15.9024106 31.9888561,16.013977 32.9255353,15.1997295 L41.6361071,7.57469655 L41.6361071,46.5879388 C41.6361071,47.8962718 42.6967341,48.9568987 44.0049881,48.9568987 C45.313321,48.9568987 46.373869,47.8962718 46.373869,46.5879388 L46.373869,7.57469655 L55.0844416,15.1997295 C56.0211208,16.013977 57.5907414,15.881446 58.4283224,14.9655656 C59.3057875,14.006082 59.1305534,12.4355613 58.1935979,11.6216375 L45.5595662,0.566575499 C44.5242626,-0.209572548 43.356728,-0.167856555 42.45041,0.566575499 L42.45041,0.566575499 Z" transform="translate(44.000000, 24.478449) rotate(-180.000000) translate(-44.000000, -24.478449) "></path>
            </g>
        </g>
    </g>
</svg>