<?xml version="1.0" encoding="utf-8"?>
<!-- Generator: Adobe Illustrator 19.2.1, SVG Export Plug-In . SVG Version: 6.00 Build 0)  -->
<svg version="1.1" id="Layer_1" xmlns="http://www.w3.org/2000/svg" xmlns:xlink="http://www.w3.org/1999/xlink" x="0px" y="0px"
	 viewBox="0 0 20 21" style="enable-background:new 0 0 20 21;" xml:space="preserve">
<style type="text/css">
	.st0{fill:#FFFFFF;}
</style>
<title>instagram</title>
<desc>Created with Sketch.</desc>
<g id="Symbols">
	<g id="footer" transform="translate(-1511.000000, -39.000000)">
		<g id="social">
			<g transform="translate(1385.000000, 39.000000)">
				<g id="instagram" transform="translate(126.000000, 0.000000)">
					<path id="Shape" class="st0" d="M14,0H6C2.7,0,0,2.7,0,6v8.1c0,3.3,2.7,6,6,6H14c3.3,0,6-2.7,6-6V6C20,2.7,17.3,0,14,0z
						 M18,14.1c0,2.2-1.8,3.9-3.9,3.9H6C3.8,18,2,16.3,2,14.1V6C2,3.8,3.8,2,6,2H14C16.2,2,18,3.8,18,6V14.1L18,14.1z"/>
					<path id="Shape_1_" class="st0" d="M10,4.9c-2.9,0-5.2,2.3-5.2,5.2s2.3,5.2,5.2,5.2s5.2-2.3,5.2-5.2S12.8,4.9,10,4.9z M10,13.2
						c-1.7,0-3.2-1.4-3.2-3.2S8.3,6.9,10,6.9c1.7,0,3.2,1.4,3.2,3.2C13.2,11.8,11.7,13.2,10,13.2z"/>
					<circle id="Oval" class="st0" cx="15.2" cy="4.9" r="1.2"/>
				</g>
			</g>
		</g>
	</g>
</g>
</svg>
