<?xml version="1.0" encoding="UTF-8" standalone="no"?>
<svg width="120px" height="45px" viewBox="0 0 120 45" version="1.1" xmlns="http://www.w3.org/2000/svg" xmlns:xlink="http://www.w3.org/1999/xlink">
    <!-- Generator: Sketch 40.1 (33804) - http://www.bohemiancoding.com/sketch -->
    <title>Group 2</title>
    <desc>Created with Sketch.</desc>
    <defs></defs>
    <g id="Symbols" stroke="none" stroke-width="1" fill="none" fill-rule="evenodd">
        <g id="header" transform="translate(-15.000000, -14.000000)">
            <g id="Group-3" transform="translate(15.000000, 14.000000)">
                <g id="logo-color">
                    <g id="Group-2" transform="translate(0.000000, 0.000000)">
                        <g id="Page-1">
                            <g id="Desktop-HD">
                                <g id="Group-2">
                                    <g id="Group-3" transform="translate(0.000000, 0.058247)" fill="#0F92BD">
                                        <path d="M40.3555706,35.9883036 C39.4147073,41.2913667 34.3264105,44.8321207 28.9901713,43.8971069 L8.10994226,40.2386039 C2.77326446,39.3031541 -0.790518165,34.2464917 0.150783858,28.9434288 L3.83217438,8.19257815 C4.77347641,2.88951517 9.86265101,-0.651238813 15.19889,0.28290271 L36.0791191,3.94227784 C41.4153582,4.87729158 44.9782631,9.93482624 44.0378387,15.2378892 L40.3555706,35.9883036 L40.3555706,35.9883036 Z" id="Fill-1"></path>
                                    </g>
                                    <path d="M24.0604256,0.91393251 C32.249534,-0.521296133 40.057294,4.91303511 41.5015016,13.0499224 L43.462657,24.1017498 C44.9064257,32.2399456 39.4385362,39.999164 31.2507444,41.4343925 L20.1293378,43.3833555 C11.9406685,44.818148 4.13159179,39.3846889 2.68738436,31.2486739 L0.727545279,20.1955381 C-0.716662161,12.0573425 4.75034977,4.29725182 12.939458,2.86202317 L24.0604256,0.91393251 L24.0604256,0.91393251 Z" id="Fill-4" fill="#37A4DD" style="mix-blend-mode: multiply;"></path>
                                    <path d="M15.0702673,23.9735343 C12.8839891,23.9735343 11.1124105,22.2116615 11.1124105,20.0402839 C11.1124105,17.8689064 12.8839891,16.1070335 15.0702673,16.1070335 C17.255229,16.1070335 19.0276853,17.8689064 19.0276853,20.0402839 C19.0276853,22.2116615 17.255229,23.9735343 15.0702673,23.9735343 M15.0702673,14.1122794 C13.5470695,14.1122794 12.161666,14.6840159 11.1075833,15.6177213 L11.1075833,11.3948957 C11.1075833,10.8458368 10.6595323,10.4010075 10.1061608,10.4010075 C9.55278931,10.4010075 9.10473832,10.8458368 9.10473832,11.3948957 L9.10473832,24.2644179 C9.10473832,24.8139129 9.55278931,25.2596144 10.1061608,25.2596144 C10.5972177,25.2596144 11.0031404,24.9085481 11.0891522,24.4458384 C12.1454291,25.3891382 13.537854,25.9678525 15.0702673,25.9678525 C18.3654827,25.9678525 21.0353575,23.313268 21.0353575,20.0402839 C21.0353575,16.7659914 18.3654827,14.1122794 15.0702673,14.1122794" id="Fill-6" fill="#FEFEFE"></path>
                                    <path d="M28.8001558,16.1532173 C30.9864339,16.1532173 32.7562572,17.914218 32.7562572,20.0860316 C32.7562572,22.2574091 30.9864339,24.0179737 28.8001558,24.0179737 C26.6143163,24.0179737 24.8427376,22.2574091 24.8427376,20.0860316 C24.8427376,17.914218 26.6143163,16.1532173 28.8001558,16.1532173 M28.8001558,26.0136001 C32.0944933,26.0136001 34.7639292,23.3590159 34.7639292,20.0860316 C34.7639292,16.8117391 32.0944933,14.1580271 28.8001558,14.1580271 C27.2690589,14.1580271 25.8770728,14.7363051 24.8207959,15.6791688 C24.7400502,15.2099175 24.3319333,14.8531819 23.8360492,14.8531819 C23.2831165,14.8531819 22.8350655,15.2971389 22.8350655,15.8470701 L22.8350655,28.7179004 C22.8350655,29.2682676 23.2831165,29.7109164 23.8360492,29.7109164 C24.3898596,29.7109164 24.8379105,29.2682676 24.8379105,28.7179004 L24.8379105,24.5077221 C25.8919932,25.4414274 27.2773966,26.0136001 28.8001558,26.0136001" id="Fill-8" fill="#FEFEFE"></path>
                                    <path d="M28.7997169,33.5763958 L28.7997169,35.5707139 C32.0936156,35.5707139 34.7630517,32.917438 34.7630517,29.6440176 L32.7562572,29.6440176 C32.7562572,31.8153952 30.9842396,33.5763958 28.7997169,33.5763958" id="Fill-10" fill="#FEFEFE"></path>
                                    <path d="M61.0014178,21.4303319 C61.6636203,21.4303319 62.3109027,21.3396216 62.7335011,21.2031201 C63.9130908,20.7726823 64.763115,19.9327399 64.8886221,18.5040529 C64.984727,17.4150933 64.5164895,16.5075543 63.5484187,16.0993581 C63.1078279,15.9179375 62.293788,15.8267911 61.517927,15.8267911 L56.061886,15.8267911 L55.5686349,21.4303319 L61.0014178,21.4303319 L61.0014178,21.4303319 Z M60.8030641,28.8707561 C61.2822724,28.8707561 62.1349296,28.7800457 62.5829805,28.6217389 C63.7410674,28.1677514 64.5884585,27.1010331 64.7144044,25.6723462 C64.8320121,24.3339333 64.3062873,23.5624599 63.3417271,23.1089084 C62.8827053,22.8821327 62.0212713,22.8141 61.3590686,22.8141 L55.4470776,22.8141 L54.9138925,28.8707561 L60.8030641,28.8707561 L60.8030641,28.8707561 Z M54.6356709,14.398104 L61.6206144,14.398104 C62.6711866,14.398104 63.6405741,14.5341695 64.3260349,14.7836228 C65.8536211,15.3278845 66.6654667,16.7343301 66.5057305,18.549408 C66.3718858,20.0692415 65.0716163,21.6117525 63.7840733,21.9745936 L63.7779295,22.0426264 C65.2607546,22.3147573 66.515385,23.8803818 66.3639868,25.6043135 C66.1678274,27.8271515 64.6854411,29.3700988 62.8239013,30.0277483 C62.2599977,30.2091688 61.2958762,30.2776377 60.6569319,30.2776377 L53.2379798,30.2776377 L54.6356709,14.398104 L54.6356709,14.398104 Z" id="Fill-12" fill="#1092BD"></path>
                                    <path d="M77.6947178,23.1545688 C77.7368462,20.8632618 76.5405806,18.8898769 73.8698281,18.8898769 C71.3359924,18.8898769 69.6951866,20.9312945 69.2256328,23.1545688 L77.6947178,23.1545688 L77.6947178,23.1545688 Z M67.6414368,24.038994 L67.6471416,23.9713974 C67.9451109,20.5911309 70.4951836,17.5510279 73.987875,17.5510279 C77.7315801,17.5510279 79.3912558,20.477743 79.083632,23.9713974 L79.0476474,24.3795937 L69.072479,24.3795937 C68.9276635,27.0559833 70.2924417,29.1889834 72.8947357,29.1889834 C74.401258,29.1889834 75.9411314,28.5531391 77.3111758,27.5099708 L78.0141901,28.5984943 C76.5239048,29.7101316 74.9247885,30.5047187 72.7788832,30.5047187 C69.080817,30.5047187 67.325914,27.6233587 67.6414368,24.038994 L67.6414368,24.038994 L67.6414368,24.038994 Z" id="Fill-14" fill="#1092BD"></path>
                                    <path d="M88.1745033,21.8159815 C88.5628725,21.8159815 89.1162441,21.7479487 89.3773511,21.6341248 C90.1382917,21.2939612 90.788207,20.3868583 90.8707081,19.4566417 L90.8781683,19.3663676 C90.9540868,18.5041837 90.5139349,17.8007429 89.9460818,17.5059345 C89.6617165,17.3694329 88.9872264,17.2560451 88.5760377,17.2560451 L84.7866936,17.2560451 L84.3851591,21.8159815 L88.1745033,21.8159815 L88.1745033,21.8159815 Z M82.0479216,14.3982349 L88.6910125,14.3982349 C89.6722485,14.3982349 90.7079002,14.5565418 91.4109145,14.8744639 C92.988528,15.6228237 94.1211623,17.2787226 93.9372903,19.3663676 L93.9293913,19.4566417 C93.7218219,21.8159815 92.095059,23.698656 90.1387305,24.402097 C89.5498135,24.606195 88.5391754,24.6742277 87.9002309,24.6742277 L84.1337064,24.6742277 L83.6404555,30.2773325 L80.6502306,30.2773325 L82.0479216,14.3982349 L82.0479216,14.3982349 Z" id="Fill-16" fill="#38A4DD"></path>
                                    <path d="M102.000365,24.992019 L102.018357,24.7879208 C101.304372,24.6060642 100.529827,24.5833867 99.7767857,24.5833867 C98.5208387,24.5833867 96.5070229,24.9013086 96.3753722,26.3984646 C96.2757564,27.5323431 97.3333499,27.9636531 98.4067414,27.9636531 C100.802783,27.9636531 101.89285,26.2170441 102.000365,24.992019 M93.4123552,26.3531095 C93.7199789,22.859455 97.2938547,21.9296746 100.033504,21.9296746 C100.58161,21.9296746 101.328508,21.9972712 102.250062,22.1560142 L102.276392,21.8612058 C102.286047,21.748254 102.294385,21.6571076 102.285169,21.4983646 C102.234264,20.5227929 101.535638,20.1599517 100.371408,20.1599517 C99.1847967,20.1599517 97.3416879,20.6135032 95.9821755,21.2715889 L95.2488815,18.708151 C96.631652,18.0500654 98.9013089,17.4150933 100.613206,17.4150933 C103.62625,17.4150933 105.220539,18.7535062 105.225367,21.2942665 C105.231071,21.748254 105.191137,22.2018054 105.14111,22.7687448 L104.480224,30.2776377 L101.535199,30.2776377 C101.590931,29.6426657 101.620333,29.5737608 101.829658,29.0072577 L101.786213,28.9841439 C100.948915,29.9370381 99.6047621,30.685398 98.2584151,30.685398 C94.8109237,30.685398 93.2021531,28.7351267 93.4123552,26.3531095" id="Fill-18" fill="#38A4DD"></path>
                                    <path d="M105.264642,34.3153359 L105.512145,31.5024446 C106.598702,31.8657219 107.608024,32.0698202 108.110051,32.0698202 C108.52124,32.0698202 108.943839,31.9333186 109.175544,31.6385102 C109.382235,31.3659432 109.790352,30.6175833 110.070768,30.0279663 L106.149773,17.7781525 L109.368631,17.7781525 L111.217006,23.7440984 C111.517608,24.7423478 111.757213,25.6494505 111.930553,26.534748 L111.976192,26.534748 C112.251341,25.7401609 112.904329,24.2883601 113.51431,23.0637712 L116.102122,17.7781525 L119.275341,17.7781525 L112.977175,30.4588403 C112.503233,31.4344119 111.820844,32.7047922 111.335492,33.294409 C110.489856,34.3380133 109.421292,34.8146785 108.165345,34.8146785 C107.412303,34.8146785 106.195412,34.633258 105.264642,34.3153359" id="Fill-20" fill="#38A4DD"></path>
                                </g>
                            </g>
                        </g>
                    </g>
                </g>
            </g>
        </g>
    </g>
</svg>