<svg xmlns="http://www.w3.org/2000/svg" width="20" height="20" viewBox="0 0 20 20">
    <path fill="#9B9B9B" fill-rule="nonzero" d="M7.407.09C3.334.09 0 3.422 0 7.495c0 4.073 3.334 7.407 7.407 7.407 1.504 0 2.91-.449 4.081-1.227l5.733 5.733c.578.578 1.52.578 2.098 0a1.476 1.476 0 0 0 0-2.091l-5.74-5.74a7.361 7.361 0 0 0 1.234-4.082C14.813 3.423 11.48.09 7.407.09zm0 2.962a4.422 4.422 0 0 1 4.444 4.444 4.422 4.422 0 0 1-4.444 4.444 4.422 4.422 0 0 1-4.444-4.444 4.422 4.422 0 0 1 4.444-4.444z"/>
</svg>
