<?xml version="1.0" encoding="utf-8"?>
<!-- Generator: Adobe Illustrator 19.2.1, SVG Export Plug-In . SVG Version: 6.00 Build 0)  -->
<svg version="1.1" id="Layer_1" xmlns="http://www.w3.org/2000/svg" xmlns:xlink="http://www.w3.org/1999/xlink" x="0px" y="0px"
	 viewBox="0 0 21 21" style="enable-background:new 0 0 21 21;" xml:space="preserve">
<style type="text/css">
	.st0{fill:#FFFFFF;}
</style>
<path class="st0" d="M19.1,0H1C0.4,0,0,0.4,0,1v18.1c0,0.6,0.4,1,1,1h18.1c0.6,0,1-0.4,1-1V1C20.1,0.4,19.6,0,19.1,0z M15.9,7.2
	c0,0.1,0,0.2,0,0.4c0,4.8-3.9,8.6-8.6,8.6c-1.7,0-3.3-0.5-4.6-1.3c2.6,0.4,4.4-1.3,4.4-1.3c-2.3-0.2-2.8-2.1-2.8-2.1
	c0.8,0.1,1.3-0.1,1.3-0.1c-2.6-0.6-2.4-3-2.4-3c0.6,0.4,1.3,0.4,1.3,0.4c-2.3-2-0.9-4-0.9-4c2.4,2.9,6,3.1,6.2,3.1
	C9.9,7.7,9.8,7.5,9.8,7.3c0-1.7,1.4-3,3-3c0.9,0,1.7,0.4,2.2,1c0.2,0,0.3-0.1,0.4-0.1C16.4,4.8,17,4.4,17,4.4
	c-0.1,0.9-1.2,1.6-1.3,1.7c0.8-0.1,1.7-0.4,1.7-0.4C17.1,6.2,16.1,7.1,15.9,7.2z"/>
</svg>
