<?xml version="1.0" encoding="utf-8"?>
<!-- Generator: Adobe Illustrator 19.2.1, SVG Export Plug-In . SVG Version: 6.00 Build 0)  -->
<svg version="1.1" id="Layer_1" xmlns="http://www.w3.org/2000/svg" xmlns:xlink="http://www.w3.org/1999/xlink" x="0px" y="0px"
	 viewBox="0 0 21 21" style="enable-background:new 0 0 21 21;" xml:space="preserve">
<style type="text/css">
	.st0{fill:#0074BA;}
	.st1{fill:#FFFFFF;}
</style>
<title>002-twitter</title>
<desc>Created with Sketch.</desc>
<g id="Symbols">
	<g id="footer" transform="translate(-1451.000000, -39.000000)">
		<g id="social">
			<g transform="translate(1385.000000, 39.000000)">
				<g id="_x30_02-twitter" transform="translate(66.000000, 0.000000)">
					<path id="Rectangle-path" class="st0" d="M1,0h18.1c0.6,0,1,0.4,1,1v18.1c0,0.6-0.4,1-1,1H1c-0.6,0-1-0.4-1-1V1
						C0,0.4,0.4,0,1,0z"/>
					<path id="Shape" class="st1" d="M7.3,16.2c4.8,0,8.6-3.9,8.6-8.6c0-0.1,0-0.2,0-0.4c0.2-0.1,1.2-1,1.5-1.5c0,0-0.9,0.4-1.7,0.4
						c0.1-0.1,1.2-0.8,1.3-1.7c0,0-0.6,0.3-1.5,0.6c-0.1,0-0.3,0.1-0.4,0.1c-0.6-0.6-1.3-1-2.2-1c-1.7,0-3,1.4-3,3
						c0,0.2,0,0.5,0.1,0.7c-0.2,0-3.8-0.2-6.2-3.1c0,0-1.4,2,0.9,4c0,0-0.7,0-1.3-0.4c0,0-0.2,2.4,2.4,3c0,0-0.5,0.2-1.3,0.1
						c0,0,0.5,1.9,2.8,2.1c0,0-1.8,1.7-4.4,1.3C4,15.7,5.6,16.2,7.3,16.2z"/>
				</g>
			</g>
		</g>
	</g>
</g>
</svg>
