<?xml version="1.0" encoding="utf-8"?>
<!-- Generator: Adobe Illustrator 19.2.1, SVG Export Plug-In . SVG Version: 6.00 Build 0)  -->
<svg version="1.1" id="Layer_1" xmlns="http://www.w3.org/2000/svg" xmlns:xlink="http://www.w3.org/1999/xlink" x="0px" y="0px"
	 viewBox="0 0 27 21" style="enable-background:new 0 0 27 21;" xml:space="preserve">
<style type="text/css">
	.st0{fill:#0074BA;}
	.st1{fill:#FFFFFF;}
</style>
<title>youtube</title>
<desc>Created with Sketch.</desc>
<g id="Symbols">
	<g id="footer" transform="translate(-1385.000000, -39.000000)">
		<g id="social">
			<g transform="translate(1385.000000, 39.000000)">
				<g id="youtube">
					<path id="Shape" class="st0" d="M26.1,4.4c0,0-0.3-2-1-2.8c-1-1.1-2.1-1.1-2.6-1.2C18.7,0.1,13.2,0,13.2,0l0,0
						c0,0-5.6,0-9.2,0.3c-0.5,0-1.6,0.1-2.6,1.2c-0.8,0.9-1,2.8-1,2.8S0,6.7,0,9v2.1c0,2.3,0.3,4.6,0.3,4.6s0.3,2,1,2.8
						c1,1.1,2.3,1.1,2.9,1.2c2.1,0.2,9,0.3,9,0.3s5.6,0,9.2-0.3c0.5,0,1.6-0.1,2.6-1.2c0.8-0.9,1-2.8,1-2.8s0.3-2.3,0.3-4.6V9
						C26.4,6.7,26.1,4.4,26.1,4.4"/>
					<polygon id="Shape_1_" class="st1" points="10,5.5 10,15.3 18.7,10.5 					"/>
				</g>
			</g>
		</g>
	</g>
</g>
</svg>
